HIERARCHY
ROOT hips
{
  OFFSET 0 10.6860622 2.3727825e-15
  CHANNELS 6 Xposition Yposition Zposition Yrotation Xrotation Zrotation
  JOINT leftUpperLeg
  {
    OFFSET 0.6642549969 -0.9402397400000004 0
    CHANNELS 3 Yrotation Xrotation Zrotation
    JOINT leftLowerLeg
    {
      OFFSET 0 -3.997221335632195 0
      CHANNELS 3 Yrotation Xrotation Zrotation
      JOINT leftFoot
      {
        OFFSET -0.13777839790000004 -4.6145792000000005 -0.22186036399999998
        CHANNELS 3 Yrotation Xrotation Zrotation
        JOINT leftToes
        {
          OFFSET -0.03777410834999995 -0.9130806927000008 0.85230013
          CHANNELS 3 Yrotation Xrotation Zrotation
          End Site
          {
            OFFSET -0.03777410834999995 -0.9130806927000008 0.85230013
          }
        }
      }
    }
  }
  JOINT rightUpperLeg
  {
    OFFSET -0.6642778626 -0.9402397400000004 0
    CHANNELS 3 Yrotation Xrotation Zrotation
    JOINT rightLowerLeg
    {
      OFFSET 0 -3.997221452859387 0
      CHANNELS 3 Yrotation Xrotation Zrotation
      JOINT rightFoot
      {
        OFFSET 0.1377926176 -4.6145792000000005 -0.22185782299999995
        CHANNELS 3 Yrotation Xrotation Zrotation
        JOINT rightToes
        {
          OFFSET 0.037780746850000047 -0.9130806927000008 0.85230167
          CHANNELS 3 Yrotation Xrotation Zrotation
          End Site
          {
            OFFSET 0.037780746850000047 -0.9130806927000008 0.85230167
          }
        }
      }
    }
  }
  JOINT spine
  {
    OFFSET 0 0.13988381660000015 0
    CHANNELS 3 Yrotation Xrotation Zrotation
    JOINT chest
    {
      OFFSET 0 0.6191039003973773 0
      CHANNELS 3 Yrotation Xrotation Zrotation
      JOINT upperChest
      {
        OFFSET 0 0.9855186130586943 0
        CHANNELS 3 Yrotation Xrotation Zrotation
        JOINT leftShoulder
        {
          OFFSET 0.1807663869 1.5087829790000005 0
          CHANNELS 3 Yrotation Xrotation Zrotation
          JOINT leftUpperArm
          {
            OFFSET 0.5985063006419806 0 0
            CHANNELS 3 Yrotation Xrotation Zrotation
            JOINT leftLowerArm
            {
              OFFSET 2.2993332369501065 0 0
              CHANNELS 3 Yrotation Xrotation Zrotation
              JOINT leftHand
              {
                OFFSET 2.395047042602395 0 0
                CHANNELS 3 Yrotation Xrotation Zrotation
                JOINT leftIndexProximal
                {
                  OFFSET 0.5766295810000004 0.04556643899499946 0.17265095988184
                  CHANNELS 3 Yrotation Xrotation Zrotation
                  JOINT leftIndexIntermediate
                  {
                    OFFSET 0.2957229000000008 -0.019352197700001517 -0.007932640616999987
                    CHANNELS 3 Yrotation Xrotation Zrotation
                    JOINT leftIndexDistal
                    {
                      OFFSET 0.19008243099999922 -0.012484908149998475 -0.002786250786000012
                      CHANNELS 3 Yrotation Xrotation Zrotation
                      End Site
                      {
                        OFFSET 0.19008243099999922 -0.012484908149998475 -0.002786250786000012
                      }
                    }
                  }
                }
                JOINT leftMiddleProximal
                {
                  OFFSET 0.5834975091000001 0.0524350405149987 0.02204081888183999
                  CHANNELS 3 Yrotation Xrotation Zrotation
                  JOINT leftMiddleIntermediate
                  {
                    OFFSET 0.33880573540000003 -0.019871473270000717 -0.00000971183179999946
                    CHANNELS 3 Yrotation Xrotation Zrotation
                    JOINT leftMiddleDistal
                    {
                      OFFSET 0.20676022730000088 -0.012221336379999448 0.0001471936708000235
                      CHANNELS 3 Yrotation Xrotation Zrotation
                      End Site
                      {
                        OFFSET 0.20676022730000088 -0.012221336379999448 0.0001471936708000235
                      }
                    }
                  }
                }
                JOINT leftLittleProximal
                {
                  OFFSET 0.5344154683999995 -0.012880921405001189 -0.24414037221816004
                  CHANNELS 3 Yrotation Xrotation Zrotation
                  JOINT leftLittleIntermediate
                  {
                    OFFSET 0.21758961730000093 -0.011650919939999227 0.011893592810000034
                    CHANNELS 3 Yrotation Xrotation Zrotation
                    JOINT leftLittleDistal
                    {
                      OFFSET 0.1475273964999999 -0.008152365682999818 0.006001092492999946
                      CHANNELS 3 Yrotation Xrotation Zrotation
                      End Site
                      {
                        OFFSET 0.1475273964999999 -0.008152365682999818 0.006001092492999946
                      }
                    }
                  }
                }
                JOINT leftRingProximal
                {
                  OFFSET 0.5799399463000003 0.026911854694997794 -0.12150566991816003
                  CHANNELS 3 Yrotation Xrotation Zrotation
                  JOINT leftRingIntermediate
                  {
                    OFFSET 0.26167887460000006 -0.013480186499999602 0.010996293000000053
                    CHANNELS 3 Yrotation Xrotation Zrotation
                    JOINT leftRingDistal
                    {
                      OFFSET 0.17667108799999987 -0.008990287899999228 0.0055541023999999065
                      CHANNELS 3 Yrotation Xrotation Zrotation
                      End Site
                      {
                        OFFSET 0.17667108799999987 -0.008990287899999228 0.0055541023999999065
                      }
                    }
                  }
                }
                JOINT leftThumbProximal
                {
                  OFFSET 0.11018806699999972 -0.09448718900500053 0.17047963138184
                  CHANNELS 3 Yrotation Xrotation Zrotation
                  JOINT leftThumbIntermediate
                  {
                    OFFSET 0.31062601459999983 -0.08126270900000132 0.15443142000000007
                    CHANNELS 3 Yrotation Xrotation Zrotation
                    JOINT leftThumbDistal
                    {
                      OFFSET 0.21627175790000086 -0.08833193599999878 0.018771167799999988
                      CHANNELS 3 Yrotation Xrotation Zrotation
                      End Site
                      {
                        OFFSET 0.21627175790000086 -0.08833193599999878 0.018771167799999988
                      }
                    }
                  }
                }
              }
            }
          }
        }
        JOINT neck
        {
          OFFSET 0 1.5463305265074576 0
          CHANNELS 3 Yrotation Xrotation Zrotation
          JOINT head
          {
            OFFSET 0 0.8456443600000344 0
            CHANNELS 3 Yrotation Xrotation Zrotation
            JOINT leftEye
            {
              OFFSET 0.30408573140000006 0.5104519199999995 0.1276382305
              CHANNELS 3 Yrotation Xrotation Zrotation
              End Site
              {
                OFFSET 0.30408573140000006 0.5104519199999995 0.1276382305
              }
            }
            JOINT rightEye
            {
              OFFSET -0.30409491089999996 0.5104519199999995 0.1276379445
              CHANNELS 3 Yrotation Xrotation Zrotation
              End Site
              {
                OFFSET -0.30409491089999996 0.5104519199999995 0.1276379445
              }
            }
            JOINT jaw
            {
              OFFSET -3.155239131000001e-7 -0.11984121820000082 0.60178107
              CHANNELS 3 Yrotation Xrotation Zrotation
              End Site
              {
                OFFSET -3.155239131000001e-7 -0.11984121820000082 0.60178107
              }
            }
          }
        }
        JOINT rightShoulder
        {
          OFFSET -0.1807303465 1.5087829790000005 0
          CHANNELS 3 Yrotation Xrotation Zrotation
          JOINT rightUpperArm
          {
            OFFSET -0.5985063796536958 0 0
            CHANNELS 3 Yrotation Xrotation Zrotation
            JOINT rightLowerArm
            {
              OFFSET -2.2993322059002854 0 0
              CHANNELS 3 Yrotation Xrotation Zrotation
              JOINT rightHand
              {
                OFFSET -2.395045314457259 0 0
                CHANNELS 3 Yrotation Xrotation Zrotation
                JOINT rightIndexProximal
                {
                  OFFSET -0.5764487688300002 0.0441371204405987 0.17361932004999997
                  CHANNELS 3 Yrotation Xrotation Zrotation
                  JOINT rightIndexIntermediate
                  {
                    OFFSET -0.29573011380000047 -0.01934826376999843 -0.007698921482999974
                    CHANNELS 3 Yrotation Xrotation Zrotation
                    JOINT rightIndexDistal
                    {
                      OFFSET -0.19008373999999884 -0.012503266380000655 -0.0026365778999999897
                      CHANNELS 3 Yrotation Xrotation Zrotation
                      End Site
                      {
                        OFFSET -0.19008373999999884 -0.012503266380000655 -0.0026365778999999897
                      }
                    }
                  }
                }
                JOINT rightMiddleProximal
                {
                  OFFSET -0.5834852037300005 0.05211639405060153 0.02307162440000001
                  CHANNELS 3 Yrotation Xrotation Zrotation
                  JOINT rightMiddleIntermediate
                  {
                    OFFSET -0.33880114510000003 -0.019952774050000954 0.0002455003561999819
                    CHANNELS 3 Yrotation Xrotation Zrotation
                    JOINT rightMiddleDistal
                    {
                      OFFSET -0.20675694929999955 -0.012273788999999091 0.00030209124000002766
                      CHANNELS 3 Yrotation Xrotation Zrotation
                      End Site
                      {
                        OFFSET -0.20675694929999955 -0.012273788999999091 0.00030209124000002766
                      }
                    }
                  }
                }
                JOINT rightLittleProximal
                {
                  OFFSET -0.5346811737299992 -0.011214256288399227 -0.24363941305000003
                  CHANNELS 3 Yrotation Xrotation Zrotation
                  JOINT rightLittleIntermediate
                  {
                    OFFSET -0.21757715980000092 -0.011771559690000988 0.01201554387
                    CHANNELS 3 Yrotation Xrotation Zrotation
                    JOINT rightLittleDistal
                    {
                      OFFSET -0.1475201849000004 -0.00822055339600003 0.006082065407000015
                      CHANNELS 3 Yrotation Xrotation Zrotation
                      End Site
                      {
                        OFFSET -0.1475201849000004 -0.00822055339600003 0.006082065407000015
                      }
                    }
                  }
                }
                JOINT rightRingProximal
                {
                  OFFSET -0.5800810755299999 0.027657985680600072 -0.12066365025000003
                  CHANNELS 3 Yrotation Xrotation Zrotation
                  JOINT rightRingIntermediate
                  {
                    OFFSET -0.26166445029999974 -0.013623118409999302 0.011164098990000045
                    CHANNELS 3 Yrotation Xrotation Zrotation
                    JOINT rightRingDistal
                    {
                      OFFSET -0.17666387530000027 -0.009072900100000503 0.005668185599999959
                      CHANNELS 3 Yrotation Xrotation Zrotation
                      End Site
                      {
                        OFFSET -0.17666387530000027 -0.009072900100000503 0.005668185599999959
                      }
                    }
                  }
                }
                JOINT rightThumbProximal
                {
                  OFFSET -0.10997596379000074 -0.09577489355940072 0.16989765924999997
                  CHANNELS 3 Yrotation Xrotation Zrotation
                  JOINT rightThumbIntermediate
                  {
                    OFFSET -0.31036620999999986 -0.08229339117999834 0.15440884469999996
                    CHANNELS 3 Yrotation Xrotation Zrotation
                    JOINT rightThumbDistal
                    {
                      OFFSET -0.21631306399999906 -0.08825326400000111 0.018656797720000014
                      CHANNELS 3 Yrotation Xrotation Zrotation
                      End Site
                      {
                        OFFSET -0.21631306399999906 -0.08825326400000111 0.018656797720000014
                      }
                    }
                  }
                }
              }
            }
          }
        }
      }
    }
  }
}
MOTION
Frames: 4
Frame Time: 0.03333333333333333
-0.01497602928429842 -4.7901886533996585 0.2612968981266022 -1.1776726856726902 -9.463897270287514 2.5905125536629803 7.550739468906311 -82.60017786166081 5.30066532377475 -79.82341289874752 81.49898883442164 -84.76366249141516 0.06429904098421431 3.751211790995184 3.3640660462999583 6.898848819421454e-21 -0.00005633337548003604 -3.390445913483389e-27 2.94268441087897 -84.09760779715303 -11.20606759625493 -103.76105318063819 80.44699863428787 -102.1756085968122 -1.9066822375091335 0.3614683617174834 -4.386482802903475 -0.000003195240647275057 -0.1296122081544772 8.95096383694206e-7 -1.7939934367400938 20.170698700708698 -4.532513144650023 -0.2424726651651498 4.523270601299402 -0.7807875658618227 0 0 0 -14.714945326372977 1.9487277069060003 -7.5336717931487724 -17.233525004744155 -17.37003497912995 -49.17363987529365 -57.09368741980415 0.3380553708613919 0.6214035771863933 -2.211230829112999 25.21825903744308 14.44243126790647 5.64865781008228 0.9504461629136356 -55.11391294689133 2.7925095543279133 0.827365192072241 -33.00398772125108 1.1605724028293256 0.13312116036305924 -13.088377066488004 3.574422053768884 -0.7951586885589981 -44.57523376132919 2.6841572107481926 0.7589234966822824 -31.572445331497644 1.831098287864352 0.3382456322959299 -20.931426897390494 6.932812420223565 1.8152306970389254 -27.820352238502814 1.385342600050695 0.19076896339471622 -15.682169459227174 2.1445624032351573 0.47019907537283895 -24.732335895403967 6.793288441005507 2.1618417529270277 -38.23082194106639 1.8955383449317655 0.3633910717551839 -21.704513412827428 1.657644268136542 0.2754640845321814 -18.86981678556438 -2.6439689643406044 6.698123289051029 1.3291020387809764 23.579326932119745 17.301289497543035 -2.663490661456736 -1.007067531012424 3.278676915350001 3.8831809517804188 0.4828443825444931 1.4292848491518988 0.06244915262819776 3.188367255606534 -17.08152272153198 2.7124246212552467 0 0 0 0 0 0 0 0 0 17.58853317218066 1.3870043078457424 12.164329953959232 32.77562787343331 -21.593485535436216 39.085318431262095 37.694108175699505 0.15446606245056926 -0.4525312945600936 8.198703517794948 23.300021066890444 2.410634226021949 -4.81766595406679 0.9011881973244381 49.54459975003367 -2.298224439431511 0.743474895659838 35.84883420862644 -1.2248735663852675 0.1961036650256967 18.19134500731443 -3.1449041111226173 -0.7976194485514306 46.332582128815076 -1.7668201712805651 0.4203202980076366 26.76151961761091 -0.37362013420838164 0.01783722273354793 5.46480327536951 -7.141711044909973 1.9728011436357744 25.769174131090786 -1.549686489330939 0.31901822669623064 23.26353004089453 -0.8568651320668247 0.09471967248117116 12.61497324890285 -3.0211350501566536 -0.3304797350499206 35.85484375996939 -1.3912659020601168 0.2549548610272568 20.768215254234754 -0.29111037938465084 0.010813679455392857 4.2552941861356 3.189684873916373 4.342589755891594 -16.663203180412236 -15.689025656613074 29.527537261807016 10.502499048638677 -9.934726765116812 -2.226547184101557 17.847400254292577
-0.015107991173863411 -4.7901533674499515 0.26142624020576477 -1.1776657403181012 -9.462831774525704 2.590533107028915 7.552084661298269 -82.60084079743632 5.299302341921421 -79.82065896023256 81.49891952873575 -84.76088676341197 0.06429266404419569 3.7511848393829843 3.3640466274924696 6.898848819421454e-21 -0.00005633337548003604 -3.390445913483389e-27 2.942448933889812 -84.09827202957416 -11.205828154730703 -103.7592100106748 80.44710152398795 -102.17373830309825 -1.9066612175918594 0.3613622782314423 -4.386477695165132 -0.000003195240647275057 -0.1296122081544772 8.95096383694206e-7 -1.793990095078913 20.168930531418127 -4.532485089309126 -0.24246984389853876 4.528015728931479 -0.780808757858226 0 0 0 -14.713548799306071 1.94883918884528 -7.5341991013906995 -17.23443343720153 -17.370779262085527 -49.17190637821935 -57.09767544311715 0.3380652161101217 0.621416703412856 -2.2099737251717637 25.218513841618865 14.442960407309089 5.64865781008228 0.9504461629136356 -55.11391294689133 2.7925095543279133 0.827365192072241 -33.00398772125108 1.1605724028293256 0.13312116036305924 -13.088377066488004 3.574422053768884 -0.7951586885589981 -44.57523376132919 2.6841572107481926 0.7589234966822824 -31.572445331497644 1.831098287864352 0.3382456322959299 -20.931426897390494 6.932812420223565 1.8152306970389254 -27.820352238502814 1.385342600050695 0.19076896339471622 -15.682169459227174 2.1445624032351573 0.47019907537283895 -24.732335895403967 6.793288441005507 2.1618417529270277 -38.23082194106639 1.8955383449317655 0.3633910717551839 -21.704513412827428 1.657644268136542 0.2754640845321814 -18.86981678556438 -2.6439689643406044 6.698123289051029 1.3291020387809764 23.579326932119745 17.301289497543035 -2.663490661456736 -1.007067531012424 3.278676915350001 3.8831809517804188 0.4828439099470422 1.4279998405359209 0.06244692024858918 3.1888331145495292 -17.07676931273144 2.7118854647227106 0 0 0 0 0 0 0 0 0 17.587514854906104 1.3871510932030142 12.163623608764533 32.774169832107674 -21.59511813187551 39.08573968796462 37.70015081541883 0.15449921300092415 -0.45261389488195053 8.19667071492568 23.302147973879304 2.410836477950786 -4.81766595406679 0.9011881973244381 49.54459975003367 -2.298224439431511 0.743474895659838 35.84883420862644 -1.2248735663852675 0.1961036650256967 18.19134500731443 -3.1449041111226173 -0.7976194485514306 46.332582128815076 -1.7668201712805651 0.4203202980076366 26.76151961761091 -0.37362013420838164 0.01783722273354793 5.46480327536951 -7.141711044909973 1.9728011436357744 25.769174131090786 -1.549686489330939 0.31901822669623064 23.26353004089453 -0.8568651320668247 0.09471967248117116 12.61497324890285 -3.0211350501566536 -0.3304797350499206 35.85484375996939 -1.3912659020601168 0.2549548610272568 20.768215254234754 -0.29111037938465084 0.010813679455392857 4.2552941861356 3.189684873916373 4.342589755891594 -16.663203180412236 -15.689025656613074 29.527537261807016 10.502499048638677 -9.934726765116812 -2.226547184101557 17.847400254292577
-0.015375898219645023 -4.790096623828125 0.2617270052433014 -1.1775978276856243 -9.454626442559144 2.590709544330003 7.5612635218769295 -82.6081369931615 5.289962507625881 -79.81668653411327 81.49894263056873 -84.75687342977938 0.06423375892568947 3.750984627432664 3.363887420778461 6.898848819421454e-21 -0.00005633337548003604 -3.390445913483389e-27 2.9451516949575423 -84.10584955117416 -11.208602089344664 -103.75580961070433 80.44720441478596 -102.17028915980343 -1.9064593939785242 0.3612103301820397 -4.386701187806045 -0.000003195240647275057 -0.1296122081544772 8.95096383694206e-7 -1.7939658789951152 20.15538432722515 -4.532279321533204 -0.2424531083598322 4.5644297657728226 -0.780970614249906 0 0 0 -14.702896345141323 1.9496735950888031 -7.538227969580547 -17.241296650348833 -17.376424102675976 -49.158736167020116 -57.12828042670046 0.3384222597984468 0.6216547200079102 -2.2004105842667725 25.2205334195201 14.446874842592786 5.64865781008228 0.9504461629136356 -55.11391294689133 2.7925095543279133 0.827365192072241 -33.00398772125108 1.1605724028293256 0.13312116036305924 -13.088377066488004 3.574422053768884 -0.7951586885589981 -44.57523376132919 2.6841572107481926 0.7589234966822824 -31.572445331497644 1.831098287864352 0.3382456322959299 -20.931426897390494 6.932812420223565 1.8152306970389254 -27.820352238502814 1.385342600050695 0.19076896339471622 -15.682169459227174 2.1445624032351573 0.47019907537283895 -24.732335895403967 6.793288441005507 2.1618417529270277 -38.23082194106639 1.8955383449317655 0.3633910717551839 -21.704513412827428 1.657644268136542 0.2754640845321814 -18.86981678556438 -2.6439689643406044 6.698123289051029 1.3291020387809764 23.579326932119745 17.301289497543035 -2.663490661456736 -1.007067531012424 3.278676915350001 3.8831809517804188 0.48284215744730896 1.4180764638443144 0.06243084585955551 3.1924166248225636 -17.040157296065104 2.707754247774969 0 0 0 0 0 0 0 0 0 17.579648117649434 1.3884504909592865 12.158189503765906 32.763068999596605 -21.607668987673893 39.08881539553838 37.746539266613766 0.15488538690078335 -0.45306190086185766 8.18109657715758 23.31834072628522 2.412464632070848 -4.81766595406679 0.9011881973244381 49.54459975003367 -2.298224439431511 0.743474895659838 35.84883420862644 -1.2248735663852675 0.1961036650256967 18.19134500731443 -3.1449041111226173 -0.7976194485514306 46.332582128815076 -1.7668201712805651 0.4203202980076366 26.76151961761091 -0.37362013420838164 0.01783722273354793 5.46480327536951 -7.141711044909973 1.9728011436357744 25.769174131090786 -1.549686489330939 0.31901822669623064 23.26353004089453 -0.8568651320668247 0.09471967248117116 12.61497324890285 -3.0211350501566536 -0.3304797350499206 35.85484375996939 -1.3912659020601168 0.2549548610272568 20.768215254234754 -0.29111037938465084 0.010813679455392857 4.2552941861356 3.189684873916373 4.342589755891594 -16.663203180412236 -15.689025656613074 29.527537261807016 10.502499048638677 -9.934726765116812 -2.226547184101557 17.847400254292577
-0.015647901222109795 -4.790051324298096 0.26207420229911804 -1.1774954651647416 -9.439082721843151 2.591003748735547 7.577923926086277 -82.62269771864615 5.273100024622677 -79.81416256388906 81.49908124287528 -84.75433397334537 0.06411880872839934 3.750505060105692 3.363599329285135 6.898848819421454e-21 -0.00005633337548003604 -3.390445913483389e-27 2.944104923859358 -84.12173400684306 -11.20688776561692 -103.75306817570589 80.44580519398956 -102.16762634086326 -1.9056459129748824 0.3611990708183396 -4.395827093481896 -0.000003195240647275057 -0.1296122081544772 8.95096383694206e-7 -1.7938871642267769 20.129763077752475 -4.531859498938865 -0.2424206328357396 4.633203659328886 -0.7812766397441511 0 0 0 -14.682745919625935 1.9512477985242516 -7.54591353688791 -17.25407892795482 -17.38714172745289 -49.133954107032935 -57.18619156060696 0.33906732374245013 0.6220682006123953 -2.1823881928404663 25.22456512577851 14.454050389087863 5.64865781008228 0.9504461629136356 -55.11391294689133 2.7925095543279133 0.827365192072241 -33.00398772125108 1.1605724028293256 0.13312116036305924 -13.088377066488004 3.574422053768884 -0.7951586885589981 -44.57523376132919 2.6841572107481926 0.7589234966822824 -31.572445331497644 1.831098287864352 0.3382456322959299 -20.931426897390494 6.932812420223565 1.8152306970389254 -27.820352238502814 1.385342600050695 0.19076896339471622 -15.682169459227174 2.1445624032351573 0.47019907537283895 -24.732335895403967 6.793288441005507 2.1618417529270277 -38.23082194106639 1.8955383449317655 0.3633910717551839 -21.704513412827428 1.657644268136542 0.2754640845321814 -18.86981678556438 -2.6439689643406044 6.698123289051029 1.3291020387809764 23.579326932119745 17.301289497543035 -2.663490661456736 -1.007067531012424 3.278676915350001 3.8831809517804188 0.48284035270367365 1.39927612901219 0.06240196027141014 3.199220234298653 -16.970553856783212 2.699959155380491 0 0 0 0 0 0 0 0 0 17.564720600617854 1.3908815793965954 12.148079038612442 32.74217843349048 -21.63127687706209 39.09456868292004 37.834163821477006 0.1555663272434995 -0.4539645287818948 8.151666703690179 23.34897643731563 2.415558916400687 -4.81766595406679 0.9011881973244381 49.54459975003367 -2.298224439431511 0.743474895659838 35.84883420862644 -1.2248735663852675 0.1961036650256967 18.19134500731443 -3.1449041111226173 -0.7976194485514306 46.332582128815076 -1.7668201712805651 0.4203202980076366 26.76151961761091 -0.37362013420838164 0.01783722273354793 5.46480327536951 -7.141711044909973 1.9728011436357744 25.769174131090786 -1.549686489330939 0.31901822669623064 23.26353004089453 -0.8568651320668247 0.09471967248117116 12.61497324890285 -3.0211350501566536 -0.3304797350499206 35.85484375996939 -1.3912659020601168 0.2549548610272568 20.768215254234754 -0.29111037938465084 0.010813679455392857 4.2552941861356 3.189684873916373 4.342589755891594 -16.663203180412236 -15.689025656613074 29.527537261807016 10.502499048638677 -9.934726765116812 -2.226547184101557 17.847400254292577
